# xmcd
#
# Track frame offsets: 
#        150
#        10960
#        24528
#        34061
#        41987
#        51928
#        60586
#        73468
#        83273
#        95742
#        105333
#        111827
#        119669
#        129002
#        138071
#        147361
#        158107
#        158410
#        171133
#        181559
#        192836
#        205571
#        216011
#        226594
#        237800
#        248524
#        258906
#        268351
#        276526
#        288133
#        299679
#        312808
#
# Disc length: 4323 seconds
#
# Revision: 1
# Processed by: cddbd v1.5.2PL0 Copyright (c) Steve Scherf et al.
# Submitted via: ExactAudioCopy v1.1
#
DISCID=bf10e120
DTITLE=Various Artist - The Bakersfield Sound (Bear Family) - Disc 3
DYEAR=2019
DGENRE=Country
TTITLE0=Ruben Chapman with Coy Baker and His Band - I'm Sorry Too (mono)
TTITLE1=Don Thompson with Coy Baker and His Band - Empty Days And Lonely
TTITLE1=Nights (mono)
TTITLE2=Phil Brown - You're A Luxury (mono)
TTITLE3=Unknown, possibly Skeets McDonald - Steady Lovin' (mono)
TTITLE4=Johnny Bond - I Like That Kind (mono)
TTITLE5=Henry Sharp - Crazy Moon (mono)
TTITLE6=Gene Martin with The Desert Stars - Pair Of Empty Arms (mono)
TTITLE7=Herb Henson - You'al Come (mono)
TTITLE8=Lewis Talley - Letters Have No Arms (mono)
TTITLE9=Buck Owens - Second Fiddle (mono)
TTITLE10=Billy Mize and Cliff Crofford - When (mono)
TTITLE11=Billy Mize - You Can't Take Your Love Outta This Boy (mono)
TTITLE12=Billy Kaundart - I Removed Your Ring (mono)
TTITLE13=Larry Bryant - Keep Right On Tryin' (mono)
TTITLE14=Buck Owens - Tired Of Livin' (mono)
TTITLE15=Joe Hall - Cold Hearted Woman (mono)
TTITLE16=Owen Charles - Stage Coach (mono)
TTITLE17=Rip Goodman and Marcia - If I Could Only Tell You (mono)
TTITLE18=George Latta - Our Hearts (mono)
TTITLE19=Buck Owens - Til These Dreams Come True (mono)
TTITLE20=Billy Mize and Cliff Crofford - Living Up To My Name (mono)
TTITLE21=Don Markham and The Marksmen - Goose (Part 1) (mono)
TTITLE22=Bonnie Owens - Just For The Children's Sake (mono)
TTITLE23=Wally Lewis - My Baby Walks All Over Me (mono)
TTITLE24=Wynn Stewart - Playboy (mono)
TTITLE25=Al Brumley - Someone's Gonna Get Hurt (mono)
TTITLE26=Jackie Kelley - Door Of Temptation (mono)
TTITLE27=Jelly Sanders - Fiddlin' Country Style (mono)
TTITLE28=Buck Owens and Rose Maddox - Loose Talk (mono)
TTITLE29=Jimmy Patton - What Will I Do (With All These Memories) (mono
TTITLE29=)
TTITLE30=Tommy Dee - Loving You (On Someone Else's Time) (mono)
TTITLE31=Custer Bottoms with Jack and Jerrry - Why Tell Me (mono)
EXTD=
EXTT0=
EXTT1=
EXTT2=
EXTT3=
EXTT4=
EXTT5=
EXTT6=
EXTT7=
EXTT8=
EXTT9=
EXTT10=
EXTT11=
EXTT12=
EXTT13=
EXTT14=
EXTT15=
EXTT16=
EXTT17=
EXTT18=
EXTT19=
EXTT20=
EXTT21=
EXTT22=
EXTT23=
EXTT24=
EXTT25=
EXTT26=
EXTT27=
EXTT28=
EXTT29=
EXTT30=
EXTT31=
PLAYORDER=
